<?xml version="1.0" standalone="no"?>
<!DOCTYPE svg PUBLIC "-//W3C//DTD SVG 20010904//EN"
 "http://www.w3.org/TR/2001/REC-SVG-20010904/DTD/svg10.dtd">
<svg version="1.0" xmlns="http://www.w3.org/2000/svg"
 width="200.000000pt" height="200.000000pt" viewBox="0 0 200.000000 200.000000"
 preserveAspectRatio="xMidYMid meet">
<metadata>
Created by potrace 1.14, written by Peter Selinger 2001-2017
</metadata>
<g transform="translate(0.000000,200.000000) scale(0.100000,-0.100000)"
fill="#000000" stroke="none">
<path d="M575 1980 c-281 -73 -485 -279 -556 -558 -19 -75 -20 -106 -17 -449
l3 -368 29 -83 c89 -255 288 -439 543 -503 76 -19 106 -20 450 -17 l368 3 83
29 c255 89 439 288 503 543 19 76 20 106 17 450 l-3 368 -29 83 c-88 253 -287
438 -540 502 -72 18 -111 20 -430 19 -308 0 -360 -2 -421 -19z m490 -800 c42
-26 65 -70 65 -124 0 -43 -1 -45 -34 -51 -46 -9 -76 8 -76 43 0 48 -34 67 -64
36 -13 -12 -16 -41 -16 -153 0 -127 -2 -141 -23 -172 -60 -91 -181 -89 -250 3
-13 18 -21 49 -25 97 l-5 71 57 0 56 0 0 -46 c0 -54 14 -84 38 -84 36 0 42 21
42 141 0 64 3 131 7 149 7 38 70 106 105 113 36 7 90 -3 123 -23z m34 -262
l31 11 0 -53 c0 -59 14 -80 52 -74 21 3 23 9 26 66 l3 62 54 0 55 0 0 -61 c0
-112 -52 -174 -147 -174 -92 0 -143 56 -151 164 l-5 72 26 -12 c19 -8 34 -9
56 -1z"/>
</g>
</svg>
